<?xml version="1.0" encoding="utf-8"?>
<!-- Generator: Adobe Illustrator 22.1.0, SVG Export Plug-In . SVG Version: 6.00 Build 0)  -->
<svg version="1.1" id="Layer_1" xmlns="http://www.w3.org/2000/svg" xmlns:xlink="http://www.w3.org/1999/xlink" x="0px" y="0px" viewBox="0 0 75.7 89.5" style="enable-background:new 0 0 75.7 89.5;" xml:space="preserve">
    <style type="text/css">
    .st0 {
        display: none;
        opacity: 0.441;
    }

    .st1 {
        display: inline;
    }

    .st2 {
        display: none;
    }

    .st3 {
        fill: none;
        stroke: #171612;
        stroke-width: 5;
        stroke-linecap: round;
        stroke-linejoin: round;
    }

    .st4 {
        fill: none;
        stroke: #171612;
        stroke-width: 6;
        stroke-linecap: round;
        stroke-linejoin: round;
    }

    .st5 {
        fill: none;
        stroke: #171612;
        stroke-width: 0.5;
        stroke-linecap: round;
        stroke-linejoin: round;
    }
    </style>
    <title>Website Logo</title>
    <desc>Drawing exported from Concepts: Smarter Sketching</desc>
    <g id="New_Layer_1" class="st2">
        <path id="STROKE_A40DB9DC-F2AA-4D30-806A-D93920479876" class="st3" d="M-1.4,33.6c1.3,0.1,2.1,0.1,2.4,0.1c0.3,0,0.6,0,0.7,0.1
		c0.2,0,0.8,0.1,1.7,0.1c0.9,0.1,1.8,0.2,2.6,0.3c0.8,0.1,1.3,0.2,1.7,0.3c0.4,0.1,0.6,0.1,0.8,0.2c0.2,0,0.5,0.1,0.7,0.2
		C9.6,35,9.9,35,10,35.1c0.1,0,0.5,0.2,1.1,0.3c0.6,0.2,1.1,0.4,1.6,0.5c0.5,0.2,1,0.3,1.5,0.5c0.6,0.2,1,0.4,1.2,0.5
		c0.2,0.1,0.7,0.3,1.4,0.6c0.7,0.3,1.1,0.5,1.2,0.5c0.2,0.1,0.4,0.2,0.8,0.4c0.4,0.2,0.6,0.3,0.7,0.3c0.1,0,0.3,0.2,0.7,0.4
		c0.4,0.2,0.8,0.4,1.1,0.6c0.3,0.2,0.7,0.4,0.9,0.5c0.3,0.2,0.7,0.4,1.1,0.6c0.5,0.3,0.7,0.4,0.7,0.4c0,0,0.3,0.2,0.9,0.6
		c0.6,0.4,1.1,0.8,1.7,1.2c0.5,0.4,0.9,0.6,1,0.7c0.1,0.1,0.3,0.2,0.5,0.4c0.2,0.2,0.7,0.5,1.3,0.9c0.6,0.5,1.1,0.8,1.4,1.1
		c0.3,0.3,0.5,0.4,0.6,0.5c0.1,0.1,0.3,0.2,0.5,0.5c0.3,0.2,0.7,0.6,1.1,1c0.5,0.4,0.9,0.9,1.4,1.3c0.5,0.5,0.8,0.8,1,1
		c0.2,0.2,0.4,0.4,0.7,0.7c0.3,0.3,0.6,0.7,1.1,1.2c0.5,0.5,0.8,0.9,1.1,1.2c0.2,0.3,0.5,0.6,0.8,0.9c0.3,0.3,0.6,0.7,0.8,1
		c0.3,0.3,0.6,0.7,0.9,1.1c0.3,0.4,0.5,0.6,0.6,0.7c0.1,0.1,0.4,0.5,1,1.4c0.6,0.8,1.2,1.7,1.7,2.5c0.5,0.8,0.9,1.4,1.1,1.7
		c0.2,0.3,0.4,0.6,0.5,0.9c0.2,0.2,0.3,0.6,0.5,0.9c0.2,0.4,0.5,0.9,0.9,1.7c0.4,0.8,0.7,1.4,0.8,1.7c0.2,0.4,0.3,0.7,0.4,1
		c0.1,0.3,0.2,0.4,0.3,0.6c0.1,0.1,0.1,0.3,0.2,0.4c0.1,0.1,0.2,0.4,0.3,0.7c0.1,0.3,0.3,0.8,0.5,1.4c0.2,0.6,0.3,1,0.4,1.3
		c0.1,0.3,0.2,0.6,0.3,1c0.1,0.4,0.2,0.7,0.4,1.1c0.1,0.4,0.2,0.7,0.3,0.9c0.1,0.2,0.1,0.4,0.2,0.6c0,0.2,0.1,0.3,0.1,0.3
		c0,0,0,0.2,0.1,0.4l0.1,0.5" />
        <path id="STROKE_548D1AFE-8823-43FE-B125-FD9BAB28531F" class="st3" d="M45.7,63.4c-0.1-0.4-0.3-0.8-0.4-1.1
		c-0.1-0.3-0.2-0.6-0.3-0.9c-0.1-0.2-0.2-0.6-0.4-1.1c-0.2-0.5-0.4-1-0.5-1.6c-0.2-0.6-0.4-1.1-0.5-1.5c-0.1-0.4-0.2-0.9-0.3-1.3
		c-0.1-0.4-0.2-0.9-0.3-1.4s-0.1-1-0.2-1.5c0-0.6,0-1,0-1.3c0-0.3,0.1-0.8,0.2-1.4c0.1-0.6,0.2-1.1,0.3-1.5c0.1-0.4,0.2-0.7,0.3-1
		c0.1-0.3,0.2-0.5,0.3-0.8c0.1-0.3,0.2-0.5,0.2-0.6c0-0.1,0.1-0.3,0.3-0.7c0.2-0.4,0.3-0.7,0.4-0.9c0.1-0.2,0.2-0.5,0.4-0.9
		c0.2-0.4,0.4-0.8,0.6-1.1c0.2-0.4,0.4-0.7,0.6-1.1c0.2-0.4,0.6-0.9,1.1-1.5c0.5-0.6,1-1.1,1.4-1.5c0.4-0.4,0.8-0.7,1.2-1
		c0.3-0.2,0.7-0.5,1-0.7c0.3-0.2,0.7-0.5,1.2-0.7c0.5-0.3,0.9-0.5,1.3-0.8c0.3-0.2,0.6-0.4,0.8-0.5c0.2-0.1,0.5-0.3,0.8-0.5
		c0.4-0.2,0.8-0.4,1.3-0.7c0.5-0.3,0.8-0.5,1.1-0.6c0.2-0.1,0.5-0.3,0.9-0.4c0.4-0.2,0.7-0.3,1.1-0.5c0.4-0.2,0.7-0.3,0.9-0.4
		c0.2-0.1,0.4-0.2,0.7-0.3c0.3-0.1,0.5-0.3,0.8-0.4c0.2-0.1,0.5-0.2,0.9-0.4c0.4-0.2,0.6-0.3,0.6-0.3c0,0,0.2-0.1,0.6-0.2
		c0.3-0.1,0.7-0.3,1.1-0.4c0.4-0.1,1-0.4,1.8-0.6c0.8-0.3,1.5-0.5,2.1-0.7c0.6-0.2,0.9-0.3,1.1-0.4c0.2-0.1,0.3-0.1,0.5-0.2
		c0.2-0.1,0.3-0.1,0.4-0.2c0.1-0.1,0.3-0.1,0.6-0.3c0.3-0.1,0.5-0.2,0.7-0.3c0.2-0.1,0.4-0.2,0.6-0.3c0.2-0.1,0.3-0.2,0.4-0.2
		c0,0,0.3-0.2,0.7-0.5c0.4-0.3,0.7-0.6,0.9-0.7c0.2-0.2,0.4-0.4,0.5-0.6c0.2-0.2,0.3-0.4,0.4-0.6c0.1-0.2,0.3-0.4,0.4-0.5
		c0.1-0.2,0.2-0.3,0.3-0.5c0.1-0.2,0.2-0.3,0.2-0.3c0,0,0.1-0.1,0.2-0.3c0.1-0.2,0.2-0.3,0.2-0.5c0.1-0.1,0.2-0.5,0.4-1.2
		c0.2-0.7,0.3-1.1,0.4-1.3c0-0.2,0.1-0.5,0.2-1c0.1-0.5,0.1-0.9,0.1-1.3c0-0.3,0-0.6,0-0.8c0-0.2-0.1-0.5-0.1-0.8
		c-0.1-0.3-0.1-0.6-0.2-0.9c-0.1-0.3-0.1-0.4-0.1-0.5c0-0.1-0.1-0.2-0.1-0.4c-0.1-0.2-0.2-0.4-0.3-0.7c-0.1-0.3-0.3-0.5-0.4-0.8
		c-0.1-0.2-0.3-0.4-0.4-0.5c-0.1-0.1-0.2-0.2-0.3-0.3c-0.1-0.1-0.2-0.2-0.3-0.3c-0.1-0.1-0.3-0.3-0.4-0.4l-0.3-0.2" />
    </g>
    <g id="New_Layer_2" class="st2">
        <path id="STROKE_C45C0B32-8192-4C98-8FD2-6699C029D7B7" class="st3" d="M0.9,31.7c0,0,0.1,0,0.2,0l0.5,0.1c0,0,0.4,0.1,1.2,0.3
		c0.7,0.2,1.3,0.4,1.8,0.6C5,33,5.4,33.1,5.8,33.3c0.4,0.2,0.7,0.3,0.9,0.4c0.2,0.1,0.7,0.4,1.6,0.9c0.9,0.5,1.9,1.2,3.1,1.9
		c1.2,0.8,2.1,1.4,2.8,1.9c0.6,0.5,1.3,1,2,1.5c0.7,0.5,1.3,1,1.8,1.4c0.5,0.4,0.8,0.6,0.9,0.7c0.1,0.1,0.4,0.3,0.8,0.7
		c0.4,0.3,1.6,1.4,3.6,3.1c1.9,1.7,3.5,3.1,4.6,4.3c1.2,1.1,2,2,2.6,2.6c0.6,0.6,1,1.1,1.4,1.6c0.4,0.5,0.8,1,1.3,1.5
		c0.5,0.6,1,1.2,1.5,1.8c0.5,0.6,0.9,1.1,1.2,1.5c0.3,0.4,0.6,0.8,0.8,1.1c0.2,0.3,0.5,0.7,1,1.4c0.4,0.6,0.7,1.1,1,1.4
		c0.2,0.3,0.4,0.6,0.5,0.7c0.1,0.1,0.4,0.6,0.9,1.4c0.5,0.8,1,1.6,1.4,2.3c0.4,0.7,0.8,1.3,1.1,1.8c0.3,0.5,0.6,1,0.9,1.5
		c0.3,0.6,0.6,1.1,0.9,1.6c0.3,0.5,0.6,1.1,1,1.9c0.4,0.8,0.6,1.3,0.7,1.4c0.1,0.2,0.1,0.3,0.1,0.3c0,0,0,0-0.1-0.1
		c0-0.1-0.1-0.2-0.1-0.3c-0.1-0.1-0.2-0.4-0.4-0.8c-0.2-0.4-0.4-0.9-0.7-1.4c-0.3-0.6-0.5-1-0.7-1.3c-0.2-0.3-0.5-0.9-0.8-1.6
		c-0.4-0.7-0.7-1.3-0.9-1.7c-0.2-0.4-0.5-1.1-0.9-2c-0.4-0.9-0.7-1.7-0.9-2.4c-0.2-0.7-0.4-1.3-0.5-1.7c-0.1-0.4-0.2-1.3-0.3-2.5
		c-0.1-1.2-0.1-2.6,0-4.2c0.1-1.6,0.2-2.8,0.3-3.6c0.1-0.8,0.3-1.5,0.5-2.3c0.2-0.8,0.4-1.4,0.6-1.9c0.2-0.5,0.4-0.9,0.5-1.3
		c0.2-0.3,0.4-0.7,0.6-1.2c0.2-0.4,0.4-0.8,0.6-1c0.2-0.2,0.3-0.5,0.5-0.8c0.2-0.3,0.5-0.6,0.8-1c0.3-0.4,0.7-0.8,1-1.2
		c0.4-0.4,0.7-0.7,0.9-0.9c0.2-0.2,0.6-0.5,1.1-0.9c0.5-0.4,0.8-0.7,1-0.8c0.2-0.2,0.5-0.4,0.9-0.7c0.3-0.3,0.7-0.5,1-0.7
		c0.3-0.2,1-0.6,1.9-1.1c0.9-0.5,1.9-1,2.8-1.4c0.9-0.4,2.1-0.9,3.5-1.5c1.4-0.6,2.4-1,3.1-1.2c0.7-0.2,1.3-0.4,1.8-0.6
		c0.5-0.2,1.3-0.4,2.3-0.8c1.1-0.4,2.1-0.8,3.1-1.2c1-0.4,1.7-0.7,2.1-0.9c0.4-0.2,0.8-0.4,1.2-0.6c0.4-0.2,0.6-0.3,0.6-0.3
		c0,0,0.2-0.1,0.6-0.4c0.4-0.3,0.7-0.5,1-0.8c0.3-0.3,0.6-0.6,1-0.9c0.3-0.3,0.5-0.5,0.5-0.5c0,0,0.2-0.2,0.4-0.6
		c0.3-0.4,0.5-0.7,0.6-1c0.1-0.3,0.3-0.7,0.5-1.4c0.2-0.6,0.3-1.1,0.3-1.3c0-0.2,0-0.7,0-1.5c0-0.7,0-1.2,0-1.2
		c0-0.1-0.1-0.3-0.2-0.8c-0.1-0.5-0.2-0.9-0.4-1.2s-0.4-0.9-0.8-1.7c-0.4-0.8-0.7-1.3-0.8-1.5c-0.1-0.2-0.3-0.4-0.5-0.6
		c-0.2-0.2-0.3-0.4-0.4-0.5c-0.1-0.1-0.4-0.4-0.8-0.9l-0.5-0.6" />
        <path id="STROKE_AC9506F7-36BC-40FA-A3A9-4FF107193180" class="st3" d="M46.2,77.1c-0.1-0.2-0.2-0.3-0.1-0.3c0,0,0,0,0,0.1
		C46.1,76.8,46.1,76.9,46.2,77.1c0,0,0,0.1,0.1,0.3C46.4,77.4,46.3,77.3,46.2,77.1z" />
    </g>
    <g>
        <g id="Pen">
            <path id="STROKE_2309579C-04AE-46A3-8916-AE0F6225410A" class="st4" d="M3.9,16.4L3.5,84.7" />
            <path id="STROKE_43DE7261-2E17-49CA-9116-060ADE1C8C61" class="st4" d="M3.9,16.4c0.1,0,0.2-0.1,0.2-0.1c0,0,0.1,0,0.2-0.1
			c0.1,0,0.2-0.1,0.2-0.1c0,0,0.1,0,0.3-0.1c0.2-0.1,0.4-0.1,0.6-0.2c0.2,0,0.4-0.1,0.6-0.1c0.2,0,0.4-0.1,0.7-0.1s0.5-0.1,0.8-0.1
			c0.3,0,0.5-0.1,0.8-0.1c0.3,0,0.6-0.1,0.9-0.1c0.4,0,0.8-0.1,1.3-0.1c0.5,0,1,0,1.3,0c0.4,0,0.8,0,1.3,0c0.5,0,1.2,0,2.2,0
			c1,0,1.9,0,2.6,0c0.7,0,1.4,0,2.2,0c0.8,0,1.4,0,1.8,0c0.5,0,1.3,0.1,2.6,0.2c1.2,0.1,2.2,0.3,2.9,0.4c0.7,0.1,1.3,0.2,1.8,0.3
			c0.5,0.1,1,0.2,1.6,0.3c0.6,0.1,1,0.2,1.4,0.3c0.4,0.1,0.7,0.1,0.9,0.2c0.2,0,0.5,0.1,0.9,0.2c0.4,0.1,1,0.2,2,0.4
			c0.9,0.2,1.9,0.4,2.8,0.7c0.9,0.2,1.8,0.5,2.6,0.8c0.8,0.3,1.4,0.5,1.8,0.6c0.4,0.1,0.7,0.2,0.9,0.3c0.3,0.1,0.7,0.2,1.2,0.4
			c0.6,0.2,1,0.3,1.3,0.5c0.3,0.1,0.8,0.3,1.3,0.5c0.6,0.2,1.4,0.6,2.4,1.2c1,0.6,1.7,1,2,1.2c0.3,0.2,0.5,0.4,0.8,0.6
			c0.2,0.2,0.4,0.4,0.7,0.5c0.2,0.2,0.3,0.3,0.4,0.3c0.1,0.1,0.3,0.2,0.6,0.5c0.4,0.3,0.8,0.7,1.3,1.1c0.5,0.4,1,0.8,1.5,1.2
			c0.5,0.4,0.9,0.7,1.2,1s0.9,0.8,1.7,1.5c0.8,0.7,1.5,1.4,2,1.9c0.5,0.5,0.9,0.9,1.1,1.2c0.2,0.3,0.5,0.7,0.9,1.3
			c0.4,0.6,0.7,1,0.8,1.3c0.2,0.3,0.5,1,0.9,2.2c0.4,1.1,0.8,2.1,1,2.8c0.2,0.7,0.4,1.2,0.5,1.6c0.1,0.3,0.2,0.6,0.2,0.7
			c0,0.1,0.1,0.4,0.1,0.8c0.1,0.4,0.1,0.7,0.1,0.8c0,0.1,0,0.3,0.1,0.6c0,0.3,0.1,0.9,0.1,1.9c0,1,0,1.9,0,2.7
			c0,0.8-0.1,1.5-0.2,2.1c-0.1,0.6-0.1,1-0.2,1.2c0,0.3-0.2,0.9-0.4,1.9c-0.2,1-0.5,1.9-0.7,2.5c-0.2,0.7-0.4,1.1-0.4,1.3
			c-0.1,0.2-0.3,0.7-0.7,1.6c-0.4,0.9-0.7,1.6-1,2.1c-0.3,0.5-0.5,0.9-0.6,1.1c-0.1,0.2-0.4,0.6-0.7,1.1c-0.4,0.5-0.7,1-1,1.4
			c-0.3,0.4-0.6,0.8-0.8,1c-0.2,0.3-0.4,0.6-0.7,0.9c-0.2,0.3-0.4,0.5-0.5,0.6c-0.1,0.1-0.3,0.3-0.5,0.6c-0.2,0.3-0.7,0.8-1.4,1.5
			c-0.7,0.7-1.2,1.2-1.6,1.6c-0.4,0.4-0.7,0.6-1,0.9c-0.3,0.2-0.6,0.5-0.9,0.8c-0.3,0.3-0.7,0.6-1.1,0.9c-0.4,0.3-0.7,0.6-0.9,0.7
			c-0.2,0.2-0.8,0.6-1.6,1.2c-0.9,0.7-1.3,1-1.3,1c0,0-0.3,0.2-0.9,0.6c-0.6,0.4-1.1,0.7-1.4,0.9c-0.3,0.2-0.6,0.4-0.8,0.5
			c-0.2,0.1-0.6,0.4-1.3,0.7c-0.7,0.4-1.3,0.7-1.8,1c-0.5,0.3-1,0.5-1.2,0.6c-0.3,0.1-0.6,0.3-1,0.5c-0.4,0.2-0.8,0.3-1.2,0.5
			c-0.4,0.1-0.7,0.3-1,0.3C39,83.9,38.8,84,38.5,84c-0.2,0.1-0.3,0.1-0.4,0.1c0,0-0.4,0.1-1,0.2c-0.6,0.1-1.1,0.2-1.5,0.3
			c-0.4,0.1-1,0.1-1.7,0.2c-0.8,0.1-1.4,0.2-2,0.3c-0.6,0.1-1.1,0.2-1.6,0.2c-0.5,0.1-0.9,0.1-1.2,0.2c-0.3,0-0.6,0.1-0.7,0.1
			c-0.2,0-0.3,0-0.3,0c-0.1,0-0.2,0-0.4,0c-0.2,0-0.5,0-0.8,0c-0.4,0-0.7,0-1,0c-0.3,0-0.5,0-0.7,0c-0.2,0-0.7,0-1.6,0
			c-0.8,0-1.5,0-1.9,0c-0.4,0-0.9,0-1.4,0c-0.5,0-1.2,0-2.1,0c-0.9,0-1.7,0-2.3,0c-0.6,0-1.3,0-1.9,0.1c-0.6,0-1,0-1.3,0
			c-0.3,0-0.7,0-1.4,0c-0.6,0-1.1,0-1.4,0c-0.3,0-0.6,0-1.1-0.1c-0.5,0-0.9-0.1-1.4-0.1c-0.5,0-0.8-0.1-1-0.1
			c-0.2,0-0.4-0.1-0.6-0.1c-0.2,0-0.4-0.1-0.5-0.1c-0.1,0-0.2,0-0.2,0c0,0-0.1,0-0.2-0.1c-0.1,0-0.3-0.1-0.3-0.1
			c-0.1,0-0.3-0.1-0.6-0.2l-0.5-0.4" />
        </g>
        <g id="New_Layer_3">
            <path id="STROKE_1EA26136-393A-41A7-9D55-AD495677D165" class="st4" d="M49.5,3.5c0,1.4,0,2.3,0,2.8c0,0.5,0,0.9-0.1,1.2
			c0,0.3-0.1,0.7-0.1,1.1c0,0.4-0.1,0.8-0.1,1.1c0,0.3-0.1,0.7-0.2,1c-0.1,0.3-0.2,1-0.4,2c-0.2,1-0.4,1.8-0.6,2.4
			c-0.2,0.6-0.3,1-0.4,1.3c-0.1,0.3-0.3,0.8-0.5,1.5c-0.2,0.7-0.5,1.5-0.9,2.3c-0.3,0.8-0.7,1.5-1,2.1c-0.3,0.6-0.6,1.2-1,1.9
			c-0.4,0.7-0.6,1.1-0.7,1.3c-0.1,0.2-0.3,0.5-0.6,0.9c-0.3,0.4-0.5,0.8-0.7,1c-0.2,0.3-0.5,0.8-1.1,1.5c-0.6,0.8-1.1,1.6-1.7,2.4
			c-0.6,0.8-1.1,1.5-1.4,2c-0.4,0.5-0.8,1-1.3,1.6c-0.5,0.6-0.9,1.1-1.4,1.7c-0.5,0.5-0.8,1-1.2,1.4c-0.3,0.4-0.8,1-1.6,1.9
			c-0.7,0.9-1.4,1.6-1.9,2.2c-0.5,0.6-1.1,1.1-1.6,1.6c-0.5,0.5-1.1,1-1.6,1.6c-0.6,0.5-1.1,1-1.7,1.4c-0.5,0.4-1.1,0.9-1.7,1.4
			c-0.6,0.5-1.2,0.9-1.6,1.2c-0.4,0.3-1.3,0.9-2.5,1.8c-1.2,0.8-2.2,1.5-3,1.9c-0.8,0.4-1.3,0.7-1.4,0.8c-0.2,0.1-0.6,0.3-1.2,0.6
			c-0.6,0.3-1.1,0.6-1.6,0.8c-0.4,0.2-1.3,0.7-2.7,1.4c-1.4,0.7-2.4,1.2-3,1.5c-0.6,0.3-1,0.5-1.3,0.6C5.6,59,5.3,59.1,5,59.3
			c-0.3,0.1-0.5,0.2-0.5,0.2c0,0-0.1,0-0.2,0.1c-0.1,0-0.3,0.1-0.6,0.2" />
            <path id="STROKE_3785C810-D929-4F89-8876-5FB5F0BCAA58" class="st4" d="M20.9,50.6l0.2-0.1c0.4-0.2,0.7-0.3,0.9-0.4
			c0.2-0.1,0.5-0.3,1-0.5c0.5-0.2,0.8-0.4,1.2-0.5c0.3-0.1,0.6-0.2,0.8-0.3c0.2-0.1,0.4-0.1,0.6-0.2c0.2,0,0.4-0.1,0.5-0.1
			c0.2,0,0.7-0.1,1.7-0.2c1-0.1,2-0.1,3,0c1,0.1,1.7,0.2,2.1,0.2c0.4,0.1,1,0.2,1.7,0.5c0.8,0.2,1.4,0.5,2.1,0.8
			c0.6,0.3,1.2,0.6,1.8,0.9c0.5,0.3,1,0.6,1.3,0.8c0.3,0.2,0.8,0.6,1.5,1.1c0.6,0.5,1,0.8,1.1,0.8c0.1,0.1,0.3,0.2,0.6,0.5
			c0.3,0.3,0.6,0.6,0.9,0.9c0.3,0.3,0.6,0.6,0.8,0.9c0.2,0.3,0.5,0.6,0.7,1c0.3,0.4,0.4,0.6,0.5,0.8c0.1,0.1,0.2,0.3,0.4,0.5
			c0.1,0.2,0.3,0.6,0.6,1.1c0.3,0.5,0.4,0.7,0.4,0.7c0,0,0.2,0.4,0.6,1.2c0.4,0.8,0.8,1.7,1.2,2.7c0.5,1.2,0.8,2,1,2.5
			c0.2,0.5,0.4,1,0.6,1.5c0.2,0.5,0.6,1.3,1.1,2.4c0.8,2,1.4,3.4,1.8,4.4c0.4,0.9,0.7,1.6,0.8,2c0.2,0.4,0.3,0.8,0.4,1.1
			c0.1,0.3,0.2,0.5,0.3,0.7c0.1,0.1,0.1,0.3,0.2,0.5c0.1,0.2,0.2,0.4,0.3,0.6c0.1,0.2,0.3,0.5,0.5,0.9c0.2,0.4,0.4,0.6,0.5,0.8
			c0.1,0.2,0.2,0.3,0.4,0.5c0.1,0.2,0.3,0.3,0.4,0.5c0.1,0.2,0.5,0.6,1.2,1.2c0.7,0.5,1.3,0.8,1.6,0.9c0.4,0.2,0.7,0.3,1,0.4
			c1,0.2,1.9,0.3,2.6,0.2c0.7,0,1.3-0.1,1.8-0.1c0.4-0.1,0.7-0.1,0.7-0.1c0.1,0,0.2-0.1,0.5-0.1c0.3-0.1,0.5-0.2,0.7-0.2
			c0.2-0.1,0.3-0.1,0.5-0.2c0.2-0.1,0.5-0.2,0.9-0.4c0.4-0.2,0.6-0.3,0.8-0.3c0.1-0.1,0.3-0.1,0.5-0.2c0.2-0.1,0.4-0.2,0.6-0.3
			c0.2-0.1,0.4-0.2,0.7-0.3c0.3-0.1,0.5-0.2,0.6-0.4" />
        </g>
        <g id="New_Layer_4">
            <path id="STROKE_BC1E904F-3AFB-4A6F-A280-501751DAC1E7" class="st4" d="M13.6,16.6l-0.3,69.4" />
        </g>
        <g id="New_Layer_5">
            <path id="STROKE_1BD6361D-987B-4B89-B269-3F23D017BBE5" class="st5" d="M73,79.7l-2,1.2" />
            <path id="STROKE_44555A8F-3C9F-495A-A729-33E06DACB279" class="st5" d="M73,79.7l2,2.7" />
            <path id="STROKE_9341EF52-25D6-48DE-9BA9-385ADD4A30A5" class="st5" d="M75,82.4l-1.9,1.2" />
            <path id="STROKE_41F2ABEC-E8AB-4CA5-8E84-F338DCDC9509" class="st5" d="M73.2,80.2l-0.9,0.5" />
            <path id="STROKE_DC2837D3-5DB0-4EBF-B651-4494761C79B9" class="st5" d="M73.1,80l-0.8,0.4" />
            <path id="STROKE_FDFA57B1-1C48-4A6A-816E-BC2ABA077A48" class="st5" d="M73,79.9l-0.8,0.5" />
            <path id="STROKE_A352B950-D3D6-4F9A-BC0F-B4AA40545E40" class="st5" d="M73.6,80.6l-0.5,0.2" />
            <path id="STROKE_7B6F982C-B9F6-4480-A417-867F60D2DEE4" class="st5" d="M73.5,80.5L73,80.7" />
            <path id="STROKE_8F420571-3D45-4B22-B34F-9DBC44953E03" class="st5" d="M73.3,80.4l-0.5,0.2" />
            <path id="STROKE_50F10F6F-31AC-42DA-BB81-D5E1E4FBD437" class="st5" d="M73.5,80.7l-0.3,0.2" />
            <path id="STROKE_B72F0ABA-B0DB-4AE9-80B0-F5747D06589A" class="st5" d="M73.8,80.7L73.3,81" />
            <path id="STROKE_104D69DF-BA56-4822-BF42-0006AFF5BD6E" class="st5" d="M73.8,80.9l-0.4,0.3" />
            <path id="STROKE_0E00EFCB-31A4-4C19-85C6-8879D13CE2A9" class="st5" d="M73.9,81l-0.5,0.3" />
            <path id="STROKE_83653633-BE4F-4565-9D4B-9F18FA6D0358" class="st5" d="M74.1,81.3l-0.5,0.2" />
            <path id="STROKE_AFF7A37D-E8BA-40CB-8B8F-62293E9F3CBF" class="st5" d="M74,81.2l-0.5,0.2" />
            <path id="STROKE_824FDAB0-D2FE-4FF1-8FC3-6E6F227867B4" class="st5" d="M74.1,81.4l-0.5,0.3" />
            <path id="STROKE_D07D767B-4286-4276-A587-99647AA728E4" class="st5" d="M74.2,81.5l-0.4,0.2" />
            <path id="STROKE_E274C2C0-C1E2-4AED-8794-A90932D219FF" class="st5" d="M74.4,81.6l-0.5,0.6" />
            <path id="STROKE_4071D294-11DD-43B1-A844-0194544BB405" class="st5" d="M74.4,81.8l-0.7,0.4" />
            <path id="STROKE_BFFB482D-A8EE-4932-B419-9CA52BCE1A17" class="st5" d="M74.6,81.9l-0.7,0.5" />
            <path id="STROKE_FC60D96C-A4CF-41E0-9294-12E6C5F33A32" class="st5" d="M74.6,82.1l-0.9,0.5" />
            <path id="STROKE_B62044F6-BC3C-42A9-863D-BC085372F1D5" class="st5" d="M74.8,82.2l-1,0.5" />
            <path id="STROKE_3432D4F8-21B2-4D11-B027-D2BD62760A7F" class="st5" d="M74.8,82.3L73.4,83" />
            <path id="STROKE_1CE3D1CB-C4D8-49AA-A1B8-E4D7E9168969" class="st5" d="M74.5,82.5l-0.9,0.5" />
            <path id="STROKE_39E39035-EF65-40BA-8DCC-0703B40E92BC" class="st5" d="M74.9,82.4l-1.5,0.9" />
            <path id="STROKE_F943DE5E-DC70-4903-ACF4-38CFCBF52EDF" class="st5" d="M74.8,82.4l-1.5,1.1" />
            <path id="STROKE_8D564323-508A-464E-9542-D91DBC1EA549" class="st5" d="M51.1,1.5l0.2,2.1" />
            <path id="STROKE_A20F0437-44DE-4809-821D-C2F4EFA286E7" class="st5" d="M1.8,84.7l-0.1,2.3" />
            <path id="STROKE_F4383C5E-CCE9-4D49-BE08-E11AF5E7E234" class="st5" d="M1.6,87l4.7,0.2" />
            <path id="STROKE_51EF0505-9253-40FA-94B7-DC2DFCD341C0" class="st5" d="M2,86.4l1.3-0.6" />
            <path id="STROKE_C6ABC265-34A5-44BA-9D89-9A5A7967CA9E" class="st5" d="M1.9,86.7l0.5-1.3" />
            <path id="STROKE_B9DF3198-95E1-4F8C-9E18-3E060CF948C0" class="st5" d="M1.7,86.7L2,85.3" />
            <path id="STROKE_37C6E256-50FF-42B6-8145-5A520A6576DB" class="st5" d="M1.8,87l1.9-0.1" />
            <path id="STROKE_D4526B25-44FC-488A-BED0-4FA94ADC4E02" class="st5" d="M2.1,86.9l1.5-0.5" />
            <path id="STROKE_2D85EAD8-1770-4781-9CA4-3FDBF11443DE" class="st5" d="M2.1,86.7l1.1-0.5" />
            <path id="STROKE_6F34192D-5413-4171-B59F-9E23D20C2837" class="st5" d="M2.1,86.6l1-0.5" />
            <path id="STROKE_801C199E-80C9-43F2-8B6E-C0C825890CFE" class="st5" d="M2.5,86.7l1.4-0.2" />
            <path id="STROKE_614B0F93-A94E-4FD8-926A-566F5E811440" class="st5" d="M2.4,86.8l1.5-0.1" />
            <path id="STROKE_6905AEE2-F492-412B-9F2D-A9F5AFC1637B" class="st5" d="M5.8,13.9l-3.6,0.2" />
            <path id="STROKE_0E9CDC12-E4A6-4395-B683-B7E43542B035" class="st5" d="M2.1,14.1l0,2.9" />
            <path id="STROKE_5B00E3DC-7E7D-4471-9291-393512955572" class="st5" d="M7.5,13.9l-5.3,0.3" />
            <path id="STROKE_151880C7-7D03-484D-AF8A-663C40E9986B" class="st5" d="M2.3,14.4L2.2,16" />
            <path id="STROKE_D63176DB-BBF0-4BCF-B33F-FD5AADE40905" class="st5" d="M2.6,14.3l-0.1,1.4" />
            <path id="STROKE_1AE6A489-27A5-4241-8A79-18F1AC4445E7" class="st5" d="M2.8,14.5l0,0.8" />
            <path id="STROKE_482DE225-6F21-4587-A2B7-51D68DC963AE" class="st5" d="M3,14.2l-0.1,0.9" />
            <path id="STROKE_11F630D1-44F2-4681-848C-04F43360F7A8" class="st5" d="M3.2,14.3l0,0.6" />
            <path id="STROKE_55969858-7C91-4F07-8F38-6EA26D9B1827" class="st5" d="M3.3,14.1l0,0.8" />
            <path id="STROKE_3B40CF17-D428-4B27-BB7B-6B4B03A993FD" class="st5" d="M3.6,14.2l-0.1,0.6" />
            <path id="STROKE_F111B90E-DF7F-429D-A447-CC643BDD0704" class="st5" d="M3.7,14.2l-0.1,0.5" />
            <path id="STROKE_7CF6EEDE-DB66-4636-B080-5F5F0020BA6E" class="st5" d="M3.9,14.1L4,14.5" />
            <path id="STROKE_2F4D0423-F84C-4F36-A7F4-763F9B68E1B6" class="st5" d="M4.1,14.2l0.1,0.4" />
            <path id="STROKE_1E39DA50-AF3E-46A2-A8B0-FB3E2C9F7721" class="st5" d="M2.3,14.4l0,0.9" />
            <path id="STROKE_7AB26D36-25A7-4132-B700-244473CE68DA" class="st5" d="M8,13.6l-5.6,0.5" />
            <path id="STROKE_3607B192-EC24-48D1-8220-B84D282ED9CB" class="st5" d="M74.9,82.5l-1.6,1" />
        </g>
    </g>
</svg>